<?xml version="1.0" encoding="UTF-8" standalone="no"?>
<!DOCTYPE svg PUBLIC "-//W3C//DTD SVG 1.1//EN"
 "http://www.w3.org/Graphics/SVG/1.1/DTD/svg11.dtd">
<!-- Generated by graphviz version 2.42.4 (0)
 -->
<!-- Title: dependencies Pages: 1 -->
<svg width="5504pt" height="116pt"
 viewBox="0.00 0.00 5504.20 116.00" xmlns="http://www.w3.org/2000/svg" xmlns:xlink="http://www.w3.org/1999/xlink">
<g id="graph0" class="graph" transform="scale(1 1) rotate(0) translate(4 112)">
<title>dependencies</title>
<polygon fill="white" stroke="transparent" points="-4,4 -4,-112 5500.2,-112 5500.2,4 -4,4"/>
<!-- /workspace/create&#45;specs/CBL&#45;Mariner/out/RPMS/x86_64/rust&#45;sudo&#45;0.2.2&#45;1.cm2.x86_64.rpm -->
<g id="node1" class="node">
<title>/workspace/create&#45;specs/CBL&#45;Mariner/out/RPMS/x86_64/rust&#45;sudo&#45;0.2.2&#45;1.cm2.x86_64.rpm</title>
<ellipse fill="none" stroke="black" cx="2801.19" cy="-90" rx="373.21" ry="18"/>
<text text-anchor="middle" x="2801.19" y="-85.8" font-family="Times,serif" font-size="14.00">/workspace/create&#45;specs/CBL&#45;Mariner/out/RPMS/x86_64/rust&#45;sudo&#45;0.2.2&#45;1.cm2.x86_64.rpm</text>
</g>
<!-- e2fsprogs&#45;libs&#45;1.46.5&#45;3.cm2 -->
<g id="node2" class="node">
<title>e2fsprogs&#45;libs&#45;1.46.5&#45;3.cm2</title>
<ellipse fill="none" stroke="black" cx="120.19" cy="-18" rx="120.37" ry="18"/>
<text text-anchor="middle" x="120.19" y="-13.8" font-family="Times,serif" font-size="14.00">e2fsprogs&#45;libs&#45;1.46.5&#45;3.cm2</text>
</g>
<!-- /workspace/create&#45;specs/CBL&#45;Mariner/out/RPMS/x86_64/rust&#45;sudo&#45;0.2.2&#45;1.cm2.x86_64.rpm&#45;&gt;e2fsprogs&#45;libs&#45;1.46.5&#45;3.cm2 -->
<g id="edge1" class="edge">
<title>/workspace/create&#45;specs/CBL&#45;Mariner/out/RPMS/x86_64/rust&#45;sudo&#45;0.2.2&#45;1.cm2.x86_64.rpm&#45;&gt;e2fsprogs&#45;libs&#45;1.46.5&#45;3.cm2</title>
<path fill="none" stroke="black" d="M2435.28,-86.37C1834,-81.22 662.41,-67.42 249.19,-36 237.31,-35.1 224.85,-33.84 212.55,-32.42"/>
<polygon fill="black" stroke="black" points="212.62,-28.91 202.28,-31.2 211.79,-35.86 212.62,-28.91"/>
</g>
<!-- zlib&#45;1.2.13&#45;2.cm2 -->
<g id="node3" class="node">
<title>zlib&#45;1.2.13&#45;2.cm2</title>
<ellipse fill="none" stroke="black" cx="338.19" cy="-18" rx="79.92" ry="18"/>
<text text-anchor="middle" x="338.19" y="-13.8" font-family="Times,serif" font-size="14.00">zlib&#45;1.2.13&#45;2.cm2</text>
</g>
<!-- /workspace/create&#45;specs/CBL&#45;Mariner/out/RPMS/x86_64/rust&#45;sudo&#45;0.2.2&#45;1.cm2.x86_64.rpm&#45;&gt;zlib&#45;1.2.13&#45;2.cm2 -->
<g id="edge2" class="edge">
<title>/workspace/create&#45;specs/CBL&#45;Mariner/out/RPMS/x86_64/rust&#45;sudo&#45;0.2.2&#45;1.cm2.x86_64.rpm&#45;&gt;zlib&#45;1.2.13&#45;2.cm2</title>
<path fill="none" stroke="black" d="M2429.48,-88.25C1861.43,-85.81 803.58,-75.87 427.19,-36 419.49,-35.18 411.46,-34.05 403.51,-32.76"/>
<polygon fill="black" stroke="black" points="403.97,-29.29 393.52,-31.05 402.78,-36.19 403.97,-29.29"/>
</g>
<!-- libcap&#45;2.60&#45;2.cm2 -->
<g id="node4" class="node">
<title>libcap&#45;2.60&#45;2.cm2</title>
<ellipse fill="none" stroke="black" cx="518.19" cy="-18" rx="81.67" ry="18"/>
<text text-anchor="middle" x="518.19" y="-13.8" font-family="Times,serif" font-size="14.00">libcap&#45;2.60&#45;2.cm2</text>
</g>
<!-- /workspace/create&#45;specs/CBL&#45;Mariner/out/RPMS/x86_64/rust&#45;sudo&#45;0.2.2&#45;1.cm2.x86_64.rpm&#45;&gt;libcap&#45;2.60&#45;2.cm2 -->
<g id="edge3" class="edge">
<title>/workspace/create&#45;specs/CBL&#45;Mariner/out/RPMS/x86_64/rust&#45;sudo&#45;0.2.2&#45;1.cm2.x86_64.rpm&#45;&gt;libcap&#45;2.60&#45;2.cm2</title>
<path fill="none" stroke="black" d="M2431.75,-87.33C1901.33,-83.7 950.22,-72.19 608.19,-36 600.51,-35.19 592.52,-34.07 584.6,-32.8"/>
<polygon fill="black" stroke="black" points="585.07,-29.33 574.63,-31.11 583.91,-36.23 585.07,-29.33"/>
</g>
<!-- grep&#45;3.7&#45;2.cm2 -->
<g id="node5" class="node">
<title>grep&#45;3.7&#45;2.cm2</title>
<ellipse fill="none" stroke="black" cx="688.19" cy="-18" rx="70.63" ry="18"/>
<text text-anchor="middle" x="688.19" y="-13.8" font-family="Times,serif" font-size="14.00">grep&#45;3.7&#45;2.cm2</text>
</g>
<!-- /workspace/create&#45;specs/CBL&#45;Mariner/out/RPMS/x86_64/rust&#45;sudo&#45;0.2.2&#45;1.cm2.x86_64.rpm&#45;&gt;grep&#45;3.7&#45;2.cm2 -->
<g id="edge4" class="edge">
<title>/workspace/create&#45;specs/CBL&#45;Mariner/out/RPMS/x86_64/rust&#45;sudo&#45;0.2.2&#45;1.cm2.x86_64.rpm&#45;&gt;grep&#45;3.7&#45;2.cm2</title>
<path fill="none" stroke="black" d="M2431.41,-87.48C1934.88,-84.03 1079.09,-72.77 768.19,-36 761.46,-35.2 754.46,-34.12 747.53,-32.87"/>
<polygon fill="black" stroke="black" points="747.93,-29.38 737.45,-30.95 746.62,-36.26 747.93,-29.38"/>
</g>
<!-- audit&#45;3.0.6&#45;6.cm2 -->
<g id="node6" class="node">
<title>audit&#45;3.0.6&#45;6.cm2</title>
<ellipse fill="none" stroke="black" cx="857.19" cy="-18" rx="79.92" ry="18"/>
<text text-anchor="middle" x="857.19" y="-13.8" font-family="Times,serif" font-size="14.00">audit&#45;3.0.6&#45;6.cm2</text>
</g>
<!-- /workspace/create&#45;specs/CBL&#45;Mariner/out/RPMS/x86_64/rust&#45;sudo&#45;0.2.2&#45;1.cm2.x86_64.rpm&#45;&gt;audit&#45;3.0.6&#45;6.cm2 -->
<g id="edge5" class="edge">
<title>/workspace/create&#45;specs/CBL&#45;Mariner/out/RPMS/x86_64/rust&#45;sudo&#45;0.2.2&#45;1.cm2.x86_64.rpm&#45;&gt;audit&#45;3.0.6&#45;6.cm2</title>
<path fill="none" stroke="black" d="M2439.38,-85.54C1983.29,-79.99 1225.13,-66.43 946.19,-36 938.68,-35.18 930.87,-34.07 923.12,-32.81"/>
<polygon fill="black" stroke="black" points="923.45,-29.32 913,-31.08 922.27,-36.22 923.45,-29.32"/>
</g>
<!-- bash&#45;5.1.8&#45;4.cm2 -->
<g id="node7" class="node">
<title>bash&#45;5.1.8&#45;4.cm2</title>
<ellipse fill="none" stroke="black" cx="1033.19" cy="-18" rx="78.2" ry="18"/>
<text text-anchor="middle" x="1033.19" y="-13.8" font-family="Times,serif" font-size="14.00">bash&#45;5.1.8&#45;4.cm2</text>
</g>
<!-- /workspace/create&#45;specs/CBL&#45;Mariner/out/RPMS/x86_64/rust&#45;sudo&#45;0.2.2&#45;1.cm2.x86_64.rpm&#45;&gt;bash&#45;5.1.8&#45;4.cm2 -->
<g id="edge6" class="edge">
<title>/workspace/create&#45;specs/CBL&#45;Mariner/out/RPMS/x86_64/rust&#45;sudo&#45;0.2.2&#45;1.cm2.x86_64.rpm&#45;&gt;bash&#45;5.1.8&#45;4.cm2</title>
<path fill="none" stroke="black" d="M2445.31,-84.52C2029.6,-78.1 1367.27,-63.85 1120.19,-36 1112.85,-35.17 1105.21,-34.06 1097.63,-32.79"/>
<polygon fill="black" stroke="black" points="1098.2,-29.34 1087.74,-31.06 1096.98,-36.23 1098.2,-29.34"/>
</g>
<!-- gmp&#45;6.2.1&#45;4.cm2 -->
<g id="node8" class="node">
<title>gmp&#45;6.2.1&#45;4.cm2</title>
<ellipse fill="none" stroke="black" cx="1207.19" cy="-18" rx="77.64" ry="18"/>
<text text-anchor="middle" x="1207.19" y="-13.8" font-family="Times,serif" font-size="14.00">gmp&#45;6.2.1&#45;4.cm2</text>
</g>
<!-- /workspace/create&#45;specs/CBL&#45;Mariner/out/RPMS/x86_64/rust&#45;sudo&#45;0.2.2&#45;1.cm2.x86_64.rpm&#45;&gt;gmp&#45;6.2.1&#45;4.cm2 -->
<g id="edge7" class="edge">
<title>/workspace/create&#45;specs/CBL&#45;Mariner/out/RPMS/x86_64/rust&#45;sudo&#45;0.2.2&#45;1.cm2.x86_64.rpm&#45;&gt;gmp&#45;6.2.1&#45;4.cm2</title>
<path fill="none" stroke="black" d="M2455.52,-83.17C2081.77,-75.73 1510.47,-60.78 1294.19,-36 1286.85,-35.16 1279.21,-34.04 1271.63,-32.77"/>
<polygon fill="black" stroke="black" points="1272.2,-29.31 1261.74,-31.03 1270.99,-36.21 1272.2,-29.31"/>
</g>
<!-- libcap&#45;ng&#45;0.8.2&#45;2.cm2 -->
<g id="node9" class="node">
<title>libcap&#45;ng&#45;0.8.2&#45;2.cm2</title>
<ellipse fill="none" stroke="black" cx="1400.19" cy="-18" rx="97.24" ry="18"/>
<text text-anchor="middle" x="1400.19" y="-13.8" font-family="Times,serif" font-size="14.00">libcap&#45;ng&#45;0.8.2&#45;2.cm2</text>
</g>
<!-- /workspace/create&#45;specs/CBL&#45;Mariner/out/RPMS/x86_64/rust&#45;sudo&#45;0.2.2&#45;1.cm2.x86_64.rpm&#45;&gt;libcap&#45;ng&#45;0.8.2&#45;2.cm2 -->
<g id="edge8" class="edge">
<title>/workspace/create&#45;specs/CBL&#45;Mariner/out/RPMS/x86_64/rust&#45;sudo&#45;0.2.2&#45;1.cm2.x86_64.rpm&#45;&gt;libcap&#45;ng&#45;0.8.2&#45;2.cm2</title>
<path fill="none" stroke="black" d="M2438.94,-85.61C2178.83,-80.39 1820.19,-67.49 1506.19,-36 1496.9,-35.07 1487.18,-33.85 1477.57,-32.49"/>
<polygon fill="black" stroke="black" points="1478,-29.02 1467.6,-31.04 1476.99,-35.95 1478,-29.02"/>
</g>
<!-- openssl&#45;1.1.1k&#45;32.cm2 -->
<g id="node10" class="node">
<title>openssl&#45;1.1.1k&#45;32.cm2</title>
<ellipse fill="none" stroke="black" cx="1614.19" cy="-18" rx="99.05" ry="18"/>
<text text-anchor="middle" x="1614.19" y="-13.8" font-family="Times,serif" font-size="14.00">openssl&#45;1.1.1k&#45;32.cm2</text>
</g>
<!-- /workspace/create&#45;specs/CBL&#45;Mariner/out/RPMS/x86_64/rust&#45;sudo&#45;0.2.2&#45;1.cm2.x86_64.rpm&#45;&gt;openssl&#45;1.1.1k&#45;32.cm2 -->
<g id="edge9" class="edge">
<title>/workspace/create&#45;specs/CBL&#45;Mariner/out/RPMS/x86_64/rust&#45;sudo&#45;0.2.2&#45;1.cm2.x86_64.rpm&#45;&gt;openssl&#45;1.1.1k&#45;32.cm2</title>
<path fill="none" stroke="black" d="M2469.35,-81.74C2255.83,-74.83 1972.62,-61.51 1723.19,-36 1713.54,-35.01 1703.45,-33.75 1693.46,-32.36"/>
<polygon fill="black" stroke="black" points="1693.93,-28.89 1683.53,-30.94 1692.93,-35.82 1693.93,-28.89"/>
</g>
<!-- bzip2&#45;libs&#45;1.0.8&#45;1.cm2 -->
<g id="node11" class="node">
<title>bzip2&#45;libs&#45;1.0.8&#45;1.cm2</title>
<ellipse fill="none" stroke="black" cx="1831.19" cy="-18" rx="99.04" ry="18"/>
<text text-anchor="middle" x="1831.19" y="-13.8" font-family="Times,serif" font-size="14.00">bzip2&#45;libs&#45;1.0.8&#45;1.cm2</text>
</g>
<!-- /workspace/create&#45;specs/CBL&#45;Mariner/out/RPMS/x86_64/rust&#45;sudo&#45;0.2.2&#45;1.cm2.x86_64.rpm&#45;&gt;bzip2&#45;libs&#45;1.0.8&#45;1.cm2 -->
<g id="edge10" class="edge">
<title>/workspace/create&#45;specs/CBL&#45;Mariner/out/RPMS/x86_64/rust&#45;sudo&#45;0.2.2&#45;1.cm2.x86_64.rpm&#45;&gt;bzip2&#45;libs&#45;1.0.8&#45;1.cm2</title>
<path fill="none" stroke="black" d="M2517.2,-78.31C2348.84,-70.29 2131.46,-57 1939.19,-36 1929.87,-34.98 1920.14,-33.73 1910.49,-32.36"/>
<polygon fill="black" stroke="black" points="1910.88,-28.88 1900.48,-30.9 1909.87,-35.81 1910.88,-28.88"/>
</g>
<!-- libstdc++&#45;11.2.0&#45;8.cm2 -->
<g id="node12" class="node">
<title>libstdc++&#45;11.2.0&#45;8.cm2</title>
<ellipse fill="none" stroke="black" cx="2050.19" cy="-18" rx="102.24" ry="18"/>
<text text-anchor="middle" x="2050.19" y="-13.8" font-family="Times,serif" font-size="14.00">libstdc++&#45;11.2.0&#45;8.cm2</text>
</g>
<!-- /workspace/create&#45;specs/CBL&#45;Mariner/out/RPMS/x86_64/rust&#45;sudo&#45;0.2.2&#45;1.cm2.x86_64.rpm&#45;&gt;libstdc++&#45;11.2.0&#45;8.cm2 -->
<g id="edge11" class="edge">
<title>/workspace/create&#45;specs/CBL&#45;Mariner/out/RPMS/x86_64/rust&#45;sudo&#45;0.2.2&#45;1.cm2.x86_64.rpm&#45;&gt;libstdc++&#45;11.2.0&#45;8.cm2</title>
<path fill="none" stroke="black" d="M2590.37,-75.13C2465.64,-66.02 2304.67,-52.7 2162.19,-36 2152.59,-34.88 2142.55,-33.56 2132.6,-32.16"/>
<polygon fill="black" stroke="black" points="2133.08,-28.69 2122.69,-30.74 2132.09,-35.62 2133.08,-28.69"/>
</g>
<!-- openssl&#45;libs&#45;1.1.1k&#45;32.cm2 -->
<g id="node13" class="node">
<title>openssl&#45;libs&#45;1.1.1k&#45;32.cm2</title>
<ellipse fill="none" stroke="black" cx="2287.19" cy="-18" rx="116.38" ry="18"/>
<text text-anchor="middle" x="2287.19" y="-13.8" font-family="Times,serif" font-size="14.00">openssl&#45;libs&#45;1.1.1k&#45;32.cm2</text>
</g>
<!-- /workspace/create&#45;specs/CBL&#45;Mariner/out/RPMS/x86_64/rust&#45;sudo&#45;0.2.2&#45;1.cm2.x86_64.rpm&#45;&gt;openssl&#45;libs&#45;1.1.1k&#45;32.cm2 -->
<g id="edge12" class="edge">
<title>/workspace/create&#45;specs/CBL&#45;Mariner/out/RPMS/x86_64/rust&#45;sudo&#45;0.2.2&#45;1.cm2.x86_64.rpm&#45;&gt;openssl&#45;libs&#45;1.1.1k&#45;32.cm2</title>
<path fill="none" stroke="black" d="M2682.94,-72.9C2591.5,-60.44 2466.6,-43.43 2381.74,-31.88"/>
<polygon fill="black" stroke="black" points="2381.97,-28.38 2371.59,-30.5 2381.03,-35.31 2381.97,-28.38"/>
</g>
<!-- ncurses&#45;libs&#45;6.4&#45;2.cm2 -->
<g id="node14" class="node">
<title>ncurses&#45;libs&#45;6.4&#45;2.cm2</title>
<ellipse fill="none" stroke="black" cx="2521.19" cy="-18" rx="99.56" ry="18"/>
<text text-anchor="middle" x="2521.19" y="-13.8" font-family="Times,serif" font-size="14.00">ncurses&#45;libs&#45;6.4&#45;2.cm2</text>
</g>
<!-- /workspace/create&#45;specs/CBL&#45;Mariner/out/RPMS/x86_64/rust&#45;sudo&#45;0.2.2&#45;1.cm2.x86_64.rpm&#45;&gt;ncurses&#45;libs&#45;6.4&#45;2.cm2 -->
<g id="edge13" class="edge">
<title>/workspace/create&#45;specs/CBL&#45;Mariner/out/RPMS/x86_64/rust&#45;sudo&#45;0.2.2&#45;1.cm2.x86_64.rpm&#45;&gt;ncurses&#45;libs&#45;6.4&#45;2.cm2</title>
<path fill="none" stroke="black" d="M2734.12,-72.23C2689.45,-61.07 2631.03,-46.46 2586.68,-35.37"/>
<polygon fill="black" stroke="black" points="2587.43,-31.95 2576.88,-32.92 2585.73,-38.74 2587.43,-31.95"/>
</g>
<!-- pcre&#45;8.45&#45;2.cm2 -->
<g id="node15" class="node">
<title>pcre&#45;8.45&#45;2.cm2</title>
<ellipse fill="none" stroke="black" cx="2713.19" cy="-18" rx="74.71" ry="18"/>
<text text-anchor="middle" x="2713.19" y="-13.8" font-family="Times,serif" font-size="14.00">pcre&#45;8.45&#45;2.cm2</text>
</g>
<!-- /workspace/create&#45;specs/CBL&#45;Mariner/out/RPMS/x86_64/rust&#45;sudo&#45;0.2.2&#45;1.cm2.x86_64.rpm&#45;&gt;pcre&#45;8.45&#45;2.cm2 -->
<g id="edge14" class="edge">
<title>/workspace/create&#45;specs/CBL&#45;Mariner/out/RPMS/x86_64/rust&#45;sudo&#45;0.2.2&#45;1.cm2.x86_64.rpm&#45;&gt;pcre&#45;8.45&#45;2.cm2</title>
<path fill="none" stroke="black" d="M2779.43,-71.7C2768.1,-62.68 2754.1,-51.55 2741.89,-41.83"/>
<polygon fill="black" stroke="black" points="2743.79,-38.87 2733.78,-35.38 2739.43,-44.35 2743.79,-38.87"/>
</g>
<!-- libsepol&#45;3.2&#45;2.cm2 -->
<g id="node16" class="node">
<title>libsepol&#45;3.2&#45;2.cm2</title>
<ellipse fill="none" stroke="black" cx="2890.19" cy="-18" rx="83.97" ry="18"/>
<text text-anchor="middle" x="2890.19" y="-13.8" font-family="Times,serif" font-size="14.00">libsepol&#45;3.2&#45;2.cm2</text>
</g>
<!-- /workspace/create&#45;specs/CBL&#45;Mariner/out/RPMS/x86_64/rust&#45;sudo&#45;0.2.2&#45;1.cm2.x86_64.rpm&#45;&gt;libsepol&#45;3.2&#45;2.cm2 -->
<g id="edge15" class="edge">
<title>/workspace/create&#45;specs/CBL&#45;Mariner/out/RPMS/x86_64/rust&#45;sudo&#45;0.2.2&#45;1.cm2.x86_64.rpm&#45;&gt;libsepol&#45;3.2&#45;2.cm2</title>
<path fill="none" stroke="black" d="M2823.19,-71.7C2834.56,-62.75 2848.6,-51.71 2860.88,-42.05"/>
<polygon fill="black" stroke="black" points="2863.36,-44.56 2869.05,-35.62 2859.03,-39.05 2863.36,-44.56"/>
</g>
<!-- libgcc&#45;11.2.0&#45;8.cm2 -->
<g id="node17" class="node">
<title>libgcc&#45;11.2.0&#45;8.cm2</title>
<ellipse fill="none" stroke="black" cx="3081.19" cy="-18" rx="89.15" ry="18"/>
<text text-anchor="middle" x="3081.19" y="-13.8" font-family="Times,serif" font-size="14.00">libgcc&#45;11.2.0&#45;8.cm2</text>
</g>
<!-- /workspace/create&#45;specs/CBL&#45;Mariner/out/RPMS/x86_64/rust&#45;sudo&#45;0.2.2&#45;1.cm2.x86_64.rpm&#45;&gt;libgcc&#45;11.2.0&#45;8.cm2 -->
<g id="edge16" class="edge">
<title>/workspace/create&#45;specs/CBL&#45;Mariner/out/RPMS/x86_64/rust&#45;sudo&#45;0.2.2&#45;1.cm2.x86_64.rpm&#45;&gt;libgcc&#45;11.2.0&#45;8.cm2</title>
<path fill="none" stroke="black" d="M2868.25,-72.23C2913.53,-60.91 2972.92,-46.07 3017.47,-34.93"/>
<polygon fill="black" stroke="black" points="3018.46,-38.29 3027.31,-32.47 3016.76,-31.5 3018.46,-38.29"/>
</g>
<!-- coreutils&#45;8.32&#45;7.cm2 -->
<g id="node18" class="node">
<title>coreutils&#45;8.32&#45;7.cm2</title>
<ellipse fill="none" stroke="black" cx="3280.19" cy="-18" rx="91.48" ry="18"/>
<text text-anchor="middle" x="3280.19" y="-13.8" font-family="Times,serif" font-size="14.00">coreutils&#45;8.32&#45;7.cm2</text>
</g>
<!-- /workspace/create&#45;specs/CBL&#45;Mariner/out/RPMS/x86_64/rust&#45;sudo&#45;0.2.2&#45;1.cm2.x86_64.rpm&#45;&gt;coreutils&#45;8.32&#45;7.cm2 -->
<g id="edge17" class="edge">
<title>/workspace/create&#45;specs/CBL&#45;Mariner/out/RPMS/x86_64/rust&#45;sudo&#45;0.2.2&#45;1.cm2.x86_64.rpm&#45;&gt;coreutils&#45;8.32&#45;7.cm2</title>
<path fill="none" stroke="black" d="M2921.75,-72.95C2996.05,-62.85 3093.23,-49.26 3179.19,-36 3187.18,-34.77 3195.53,-33.43 3203.84,-32.08"/>
<polygon fill="black" stroke="black" points="3204.65,-35.49 3213.95,-30.42 3203.51,-28.59 3204.65,-35.49"/>
</g>
<!-- gawk&#45;5.1.1&#45;1.cm2 -->
<g id="node19" class="node">
<title>gawk&#45;5.1.1&#45;1.cm2</title>
<ellipse fill="none" stroke="black" cx="3471.19" cy="-18" rx="81.63" ry="18"/>
<text text-anchor="middle" x="3471.19" y="-13.8" font-family="Times,serif" font-size="14.00">gawk&#45;5.1.1&#45;1.cm2</text>
</g>
<!-- /workspace/create&#45;specs/CBL&#45;Mariner/out/RPMS/x86_64/rust&#45;sudo&#45;0.2.2&#45;1.cm2.x86_64.rpm&#45;&gt;gawk&#45;5.1.1&#45;1.cm2 -->
<g id="edge18" class="edge">
<title>/workspace/create&#45;specs/CBL&#45;Mariner/out/RPMS/x86_64/rust&#45;sudo&#45;0.2.2&#45;1.cm2.x86_64.rpm&#45;&gt;gawk&#45;5.1.1&#45;1.cm2</title>
<path fill="none" stroke="black" d="M3006.04,-74.94C3117.05,-66.14 3256.46,-53.18 3380.19,-36 3387.6,-34.97 3395.33,-33.75 3403.02,-32.45"/>
<polygon fill="black" stroke="black" points="3403.81,-35.86 3413.06,-30.69 3402.61,-28.97 3403.81,-35.86"/>
</g>
<!-- glibc&#45;2.35&#45;7.cm2 -->
<g id="node20" class="node">
<title>glibc&#45;2.35&#45;7.cm2</title>
<ellipse fill="none" stroke="black" cx="3648.19" cy="-18" rx="77.59" ry="18"/>
<text text-anchor="middle" x="3648.19" y="-13.8" font-family="Times,serif" font-size="14.00">glibc&#45;2.35&#45;7.cm2</text>
</g>
<!-- /workspace/create&#45;specs/CBL&#45;Mariner/out/RPMS/x86_64/rust&#45;sudo&#45;0.2.2&#45;1.cm2.x86_64.rpm&#45;&gt;glibc&#45;2.35&#45;7.cm2 -->
<g id="edge19" class="edge">
<title>/workspace/create&#45;specs/CBL&#45;Mariner/out/RPMS/x86_64/rust&#45;sudo&#45;0.2.2&#45;1.cm2.x86_64.rpm&#45;&gt;glibc&#45;2.35&#45;7.cm2</title>
<path fill="none" stroke="black" d="M3079.9,-77.99C3224.27,-70.17 3403.17,-57.17 3562.19,-36 3569.24,-35.06 3576.58,-33.9 3583.88,-32.62"/>
<polygon fill="black" stroke="black" points="3584.55,-36.06 3593.76,-30.83 3583.3,-29.17 3584.55,-36.06"/>
</g>
<!-- mpfr&#45;4.1.0&#45;2.cm2 -->
<g id="node21" class="node">
<title>mpfr&#45;4.1.0&#45;2.cm2</title>
<ellipse fill="none" stroke="black" cx="3823.19" cy="-18" rx="79.34" ry="18"/>
<text text-anchor="middle" x="3823.19" y="-13.8" font-family="Times,serif" font-size="14.00">mpfr&#45;4.1.0&#45;2.cm2</text>
</g>
<!-- /workspace/create&#45;specs/CBL&#45;Mariner/out/RPMS/x86_64/rust&#45;sudo&#45;0.2.2&#45;1.cm2.x86_64.rpm&#45;&gt;mpfr&#45;4.1.0&#45;2.cm2 -->
<g id="edge20" class="edge">
<title>/workspace/create&#45;specs/CBL&#45;Mariner/out/RPMS/x86_64/rust&#45;sudo&#45;0.2.2&#45;1.cm2.x86_64.rpm&#45;&gt;mpfr&#45;4.1.0&#45;2.cm2</title>
<path fill="none" stroke="black" d="M3127.42,-81.21C3307.23,-74.23 3534.12,-61.01 3735.19,-36 3742.49,-35.09 3750.09,-33.94 3757.64,-32.66"/>
<polygon fill="black" stroke="black" points="3758.26,-36.11 3767.5,-30.93 3757.05,-29.21 3758.26,-36.11"/>
</g>
<!-- pam&#45;1.5.1&#45;6.cm2 -->
<g id="node22" class="node">
<title>pam&#45;1.5.1&#45;6.cm2</title>
<ellipse fill="none" stroke="black" cx="3998.19" cy="-18" rx="77.06" ry="18"/>
<text text-anchor="middle" x="3998.19" y="-13.8" font-family="Times,serif" font-size="14.00">pam&#45;1.5.1&#45;6.cm2</text>
</g>
<!-- /workspace/create&#45;specs/CBL&#45;Mariner/out/RPMS/x86_64/rust&#45;sudo&#45;0.2.2&#45;1.cm2.x86_64.rpm&#45;&gt;pam&#45;1.5.1&#45;6.cm2 -->
<g id="edge21" class="edge">
<title>/workspace/create&#45;specs/CBL&#45;Mariner/out/RPMS/x86_64/rust&#45;sudo&#45;0.2.2&#45;1.cm2.x86_64.rpm&#45;&gt;pam&#45;1.5.1&#45;6.cm2</title>
<path fill="none" stroke="black" d="M3160.34,-85.05C3378.22,-79.38 3661.48,-66.2 3911.19,-36 3918.52,-35.11 3926.15,-33.96 3933.73,-32.68"/>
<polygon fill="black" stroke="black" points="3934.38,-36.12 3943.62,-30.92 3933.16,-29.22 3934.38,-36.12"/>
</g>
<!-- libxcrypt&#45;4.4.27&#45;1.cm2 -->
<g id="node23" class="node">
<title>libxcrypt&#45;4.4.27&#45;1.cm2</title>
<ellipse fill="none" stroke="black" cx="4194.19" cy="-18" rx="100.19" ry="18"/>
<text text-anchor="middle" x="4194.19" y="-13.8" font-family="Times,serif" font-size="14.00">libxcrypt&#45;4.4.27&#45;1.cm2</text>
</g>
<!-- /workspace/create&#45;specs/CBL&#45;Mariner/out/RPMS/x86_64/rust&#45;sudo&#45;0.2.2&#45;1.cm2.x86_64.rpm&#45;&gt;libxcrypt&#45;4.4.27&#45;1.cm2 -->
<g id="edge22" class="edge">
<title>/workspace/create&#45;specs/CBL&#45;Mariner/out/RPMS/x86_64/rust&#45;sudo&#45;0.2.2&#45;1.cm2.x86_64.rpm&#45;&gt;libxcrypt&#45;4.4.27&#45;1.cm2</title>
<path fill="none" stroke="black" d="M3159.68,-84.93C3417.38,-79.39 3772.86,-66.39 4084.19,-36 4093.99,-35.04 4104.26,-33.79 4114.41,-32.4"/>
<polygon fill="black" stroke="black" points="4115.1,-35.84 4124.51,-30.97 4114.11,-28.91 4115.1,-35.84"/>
</g>
<!-- readline&#45;8.1&#45;1.cm2 -->
<g id="node24" class="node">
<title>readline&#45;8.1&#45;1.cm2</title>
<ellipse fill="none" stroke="black" cx="4397.19" cy="-18" rx="84.51" ry="18"/>
<text text-anchor="middle" x="4397.19" y="-13.8" font-family="Times,serif" font-size="14.00">readline&#45;8.1&#45;1.cm2</text>
</g>
<!-- /workspace/create&#45;specs/CBL&#45;Mariner/out/RPMS/x86_64/rust&#45;sudo&#45;0.2.2&#45;1.cm2.x86_64.rpm&#45;&gt;readline&#45;8.1&#45;1.cm2 -->
<g id="edge23" class="edge">
<title>/workspace/create&#45;specs/CBL&#45;Mariner/out/RPMS/x86_64/rust&#45;sudo&#45;0.2.2&#45;1.cm2.x86_64.rpm&#45;&gt;readline&#45;8.1&#45;1.cm2</title>
<path fill="none" stroke="black" d="M3142.28,-82.65C3514.67,-74.71 4086.8,-59.26 4303.19,-36 4311.42,-35.11 4320.02,-33.93 4328.53,-32.59"/>
<polygon fill="black" stroke="black" points="4329.16,-36.03 4338.46,-30.96 4328.02,-29.13 4329.16,-36.03"/>
</g>
<!-- krb5&#45;1.19.4&#45;2.cm2 -->
<g id="node25" class="node">
<title>krb5&#45;1.19.4&#45;2.cm2</title>
<ellipse fill="none" stroke="black" cx="4583.19" cy="-18" rx="83.36" ry="18"/>
<text text-anchor="middle" x="4583.19" y="-13.8" font-family="Times,serif" font-size="14.00">krb5&#45;1.19.4&#45;2.cm2</text>
</g>
<!-- /workspace/create&#45;specs/CBL&#45;Mariner/out/RPMS/x86_64/rust&#45;sudo&#45;0.2.2&#45;1.cm2.x86_64.rpm&#45;&gt;krb5&#45;1.19.4&#45;2.cm2 -->
<g id="edge24" class="edge">
<title>/workspace/create&#45;specs/CBL&#45;Mariner/out/RPMS/x86_64/rust&#45;sudo&#45;0.2.2&#45;1.cm2.x86_64.rpm&#45;&gt;krb5&#45;1.19.4&#45;2.cm2</title>
<path fill="none" stroke="black" d="M3154.79,-84.2C3572.4,-77.43 4241.82,-62.79 4491.19,-36 4499.11,-35.15 4507.37,-34 4515.56,-32.7"/>
<polygon fill="black" stroke="black" points="4516.18,-36.14 4525.47,-31.04 4515.03,-29.24 4516.18,-36.14"/>
</g>
<!-- filesystem&#45;1.1&#45;20.cm2 -->
<g id="node26" class="node">
<title>filesystem&#45;1.1&#45;20.cm2</title>
<ellipse fill="none" stroke="black" cx="4782.19" cy="-18" rx="97.85" ry="18"/>
<text text-anchor="middle" x="4782.19" y="-13.8" font-family="Times,serif" font-size="14.00">filesystem&#45;1.1&#45;20.cm2</text>
</g>
<!-- /workspace/create&#45;specs/CBL&#45;Mariner/out/RPMS/x86_64/rust&#45;sudo&#45;0.2.2&#45;1.cm2.x86_64.rpm&#45;&gt;filesystem&#45;1.1&#45;20.cm2 -->
<g id="edge25" class="edge">
<title>/workspace/create&#45;specs/CBL&#45;Mariner/out/RPMS/x86_64/rust&#45;sudo&#45;0.2.2&#45;1.cm2.x86_64.rpm&#45;&gt;filesystem&#45;1.1&#45;20.cm2</title>
<path fill="none" stroke="black" d="M3156.69,-84.43C3616.16,-77.56 4390.91,-62.49 4675.19,-36 4684.71,-35.11 4694.67,-33.91 4704.52,-32.55"/>
<polygon fill="black" stroke="black" points="4705.32,-35.97 4714.71,-31.08 4704.32,-29.04 4705.32,-35.97"/>
</g>
<!-- audit&#45;libs&#45;3.0.6&#45;8.cm2 -->
<g id="node27" class="node">
<title>audit&#45;libs&#45;3.0.6&#45;8.cm2</title>
<ellipse fill="none" stroke="black" cx="4995.19" cy="-18" rx="97.25" ry="18"/>
<text text-anchor="middle" x="4995.19" y="-13.8" font-family="Times,serif" font-size="14.00">audit&#45;libs&#45;3.0.6&#45;8.cm2</text>
</g>
<!-- /workspace/create&#45;specs/CBL&#45;Mariner/out/RPMS/x86_64/rust&#45;sudo&#45;0.2.2&#45;1.cm2.x86_64.rpm&#45;&gt;audit&#45;libs&#45;3.0.6&#45;8.cm2 -->
<g id="edge26" class="edge">
<title>/workspace/create&#45;specs/CBL&#45;Mariner/out/RPMS/x86_64/rust&#45;sudo&#45;0.2.2&#45;1.cm2.x86_64.rpm&#45;&gt;audit&#45;libs&#45;3.0.6&#45;8.cm2</title>
<path fill="none" stroke="black" d="M3163.62,-85.64C3670.52,-79.94 4565.4,-65.94 4889.19,-36 4898.62,-35.13 4908.49,-33.93 4918.25,-32.57"/>
<polygon fill="black" stroke="black" points="4918.96,-36.01 4928.35,-31.11 4917.95,-29.08 4918.96,-36.01"/>
</g>
<!-- libselinux&#45;3.2&#45;1.cm2 -->
<g id="node28" class="node">
<title>libselinux&#45;3.2&#45;1.cm2</title>
<ellipse fill="none" stroke="black" cx="5202.19" cy="-18" rx="91.5" ry="18"/>
<text text-anchor="middle" x="5202.19" y="-13.8" font-family="Times,serif" font-size="14.00">libselinux&#45;3.2&#45;1.cm2</text>
</g>
<!-- /workspace/create&#45;specs/CBL&#45;Mariner/out/RPMS/x86_64/rust&#45;sudo&#45;0.2.2&#45;1.cm2.x86_64.rpm&#45;&gt;libselinux&#45;3.2&#45;1.cm2 -->
<g id="edge27" class="edge">
<title>/workspace/create&#45;specs/CBL&#45;Mariner/out/RPMS/x86_64/rust&#45;sudo&#45;0.2.2&#45;1.cm2.x86_64.rpm&#45;&gt;libselinux&#45;3.2&#45;1.cm2</title>
<path fill="none" stroke="black" d="M3169.39,-86.96C3721.52,-82.79 4737.93,-70.58 5101.19,-36 5110.22,-35.14 5119.67,-33.95 5129,-32.59"/>
<polygon fill="black" stroke="black" points="5129.71,-36.02 5139.06,-31.06 5128.65,-29.1 5129.71,-36.02"/>
</g>
<!-- pcre&#45;libs&#45;8.45&#45;2.cm2 -->
<g id="node29" class="node">
<title>pcre&#45;libs&#45;8.45&#45;2.cm2</title>
<ellipse fill="none" stroke="black" cx="5404.19" cy="-18" rx="92.04" ry="18"/>
<text text-anchor="middle" x="5404.19" y="-13.8" font-family="Times,serif" font-size="14.00">pcre&#45;libs&#45;8.45&#45;2.cm2</text>
</g>
<!-- /workspace/create&#45;specs/CBL&#45;Mariner/out/RPMS/x86_64/rust&#45;sudo&#45;0.2.2&#45;1.cm2.x86_64.rpm&#45;&gt;pcre&#45;libs&#45;8.45&#45;2.cm2 -->
<g id="edge28" class="edge">
<title>/workspace/create&#45;specs/CBL&#45;Mariner/out/RPMS/x86_64/rust&#45;sudo&#45;0.2.2&#45;1.cm2.x86_64.rpm&#45;&gt;pcre&#45;libs&#45;8.45&#45;2.cm2</title>
<path fill="none" stroke="black" d="M3171.5,-87.7C3764.3,-84.51 4900.45,-73.54 5302.19,-36 5311.31,-35.15 5320.85,-33.96 5330.28,-32.6"/>
<polygon fill="black" stroke="black" points="5331.07,-36.02 5340.44,-31.07 5330.03,-29.1 5331.07,-36.02"/>
</g>
</g>
</svg>
